<mxfile host="Electron" agent="Mozilla/5.0 (Windows NT 10.0; Win64; x64) AppleWebKit/537.36 (KHTML, like Gecko) draw.io/27.0.9 Chrome/134.0.6998.205 Electron/35.4.0 Safari/537.36" version="27.0.9">
  <diagram name="Page-1" id="E-06czk-YJhh_RDnX73n">
    <mxGraphModel dx="1044" dy="428" grid="1" gridSize="10" guides="1" tooltips="1" connect="1" arrows="1" fold="1" page="1" pageScale="1" pageWidth="850" pageHeight="1100" math="0" shadow="0">
      <root>
        <mxCell id="0" />
        <mxCell id="1" parent="0" />
        <mxCell id="QOdi_98jwgq0zmnspLuc-38" style="edgeStyle=orthogonalEdgeStyle;rounded=0;orthogonalLoop=1;jettySize=auto;html=1;" edge="1" parent="1" source="QOdi_98jwgq0zmnspLuc-1" target="QOdi_98jwgq0zmnspLuc-36">
          <mxGeometry relative="1" as="geometry">
            <Array as="points">
              <mxPoint x="130" y="720" />
            </Array>
          </mxGeometry>
        </mxCell>
        <mxCell id="QOdi_98jwgq0zmnspLuc-1" value="client" style="rounded=1;whiteSpace=wrap;html=1;" vertex="1" parent="1">
          <mxGeometry x="70" y="300" width="120" height="60" as="geometry" />
        </mxCell>
        <mxCell id="QOdi_98jwgq0zmnspLuc-21" style="edgeStyle=orthogonalEdgeStyle;rounded=0;orthogonalLoop=1;jettySize=auto;html=1;entryX=0;entryY=0.5;entryDx=0;entryDy=0;" edge="1" parent="1" source="QOdi_98jwgq0zmnspLuc-2" target="QOdi_98jwgq0zmnspLuc-3">
          <mxGeometry relative="1" as="geometry" />
        </mxCell>
        <mxCell id="QOdi_98jwgq0zmnspLuc-2" value="LB" style="rounded=1;whiteSpace=wrap;html=1;" vertex="1" parent="1">
          <mxGeometry x="260" y="300" width="120" height="60" as="geometry" />
        </mxCell>
        <mxCell id="QOdi_98jwgq0zmnspLuc-19" style="edgeStyle=orthogonalEdgeStyle;rounded=0;orthogonalLoop=1;jettySize=auto;html=1;" edge="1" parent="1" source="QOdi_98jwgq0zmnspLuc-3" target="QOdi_98jwgq0zmnspLuc-18">
          <mxGeometry relative="1" as="geometry" />
        </mxCell>
        <mxCell id="QOdi_98jwgq0zmnspLuc-20" style="edgeStyle=orthogonalEdgeStyle;rounded=0;orthogonalLoop=1;jettySize=auto;html=1;" edge="1" parent="1" source="QOdi_98jwgq0zmnspLuc-3" target="QOdi_98jwgq0zmnspLuc-4">
          <mxGeometry relative="1" as="geometry" />
        </mxCell>
        <mxCell id="QOdi_98jwgq0zmnspLuc-3" value="API&lt;div&gt;Gateway&lt;/div&gt;" style="rounded=1;whiteSpace=wrap;html=1;" vertex="1" parent="1">
          <mxGeometry x="460" y="300" width="120" height="60" as="geometry" />
        </mxCell>
        <mxCell id="QOdi_98jwgq0zmnspLuc-13" style="edgeStyle=orthogonalEdgeStyle;rounded=0;orthogonalLoop=1;jettySize=auto;html=1;" edge="1" parent="1" source="QOdi_98jwgq0zmnspLuc-4" target="QOdi_98jwgq0zmnspLuc-11">
          <mxGeometry relative="1" as="geometry" />
        </mxCell>
        <mxCell id="QOdi_98jwgq0zmnspLuc-14" style="edgeStyle=orthogonalEdgeStyle;rounded=0;orthogonalLoop=1;jettySize=auto;html=1;" edge="1" parent="1" source="QOdi_98jwgq0zmnspLuc-4" target="QOdi_98jwgq0zmnspLuc-10">
          <mxGeometry relative="1" as="geometry" />
        </mxCell>
        <mxCell id="QOdi_98jwgq0zmnspLuc-4" value="Video Upload" style="rounded=1;whiteSpace=wrap;html=1;" vertex="1" parent="1">
          <mxGeometry x="670" y="300" width="120" height="60" as="geometry" />
        </mxCell>
        <mxCell id="QOdi_98jwgq0zmnspLuc-33" style="edgeStyle=orthogonalEdgeStyle;rounded=0;orthogonalLoop=1;jettySize=auto;html=1;exitX=0.5;exitY=1;exitDx=0;exitDy=0;" edge="1" parent="1" source="QOdi_98jwgq0zmnspLuc-8" target="QOdi_98jwgq0zmnspLuc-17">
          <mxGeometry relative="1" as="geometry" />
        </mxCell>
        <mxCell id="QOdi_98jwgq0zmnspLuc-8" value="Encoder/Transcoder" style="rounded=1;whiteSpace=wrap;html=1;" vertex="1" parent="1">
          <mxGeometry x="1260" y="440" width="120" height="60" as="geometry" />
        </mxCell>
        <mxCell id="QOdi_98jwgq0zmnspLuc-16" style="edgeStyle=orthogonalEdgeStyle;rounded=0;orthogonalLoop=1;jettySize=auto;html=1;" edge="1" parent="1" source="QOdi_98jwgq0zmnspLuc-10" target="QOdi_98jwgq0zmnspLuc-8">
          <mxGeometry relative="1" as="geometry" />
        </mxCell>
        <mxCell id="QOdi_98jwgq0zmnspLuc-10" value="Blob&lt;div&gt;Storage&lt;/div&gt;" style="shape=cylinder3;whiteSpace=wrap;html=1;boundedLbl=1;backgroundOutline=1;size=15;" vertex="1" parent="1">
          <mxGeometry x="930" y="430" width="60" height="80" as="geometry" />
        </mxCell>
        <mxCell id="QOdi_98jwgq0zmnspLuc-15" style="edgeStyle=orthogonalEdgeStyle;rounded=0;orthogonalLoop=1;jettySize=auto;html=1;" edge="1" parent="1" source="QOdi_98jwgq0zmnspLuc-11" target="QOdi_98jwgq0zmnspLuc-8">
          <mxGeometry relative="1" as="geometry" />
        </mxCell>
        <mxCell id="QOdi_98jwgq0zmnspLuc-11" value="Queue" style="shape=cylinder3;whiteSpace=wrap;html=1;boundedLbl=1;backgroundOutline=1;size=15;direction=south;" vertex="1" parent="1">
          <mxGeometry x="1060" y="300" width="120" height="60" as="geometry" />
        </mxCell>
        <mxCell id="QOdi_98jwgq0zmnspLuc-34" style="edgeStyle=orthogonalEdgeStyle;rounded=0;orthogonalLoop=1;jettySize=auto;html=1;entryX=1;entryY=0.5;entryDx=0;entryDy=0;" edge="1" parent="1" source="QOdi_98jwgq0zmnspLuc-17" target="QOdi_98jwgq0zmnspLuc-25">
          <mxGeometry relative="1" as="geometry" />
        </mxCell>
        <mxCell id="QOdi_98jwgq0zmnspLuc-35" style="edgeStyle=orthogonalEdgeStyle;rounded=0;orthogonalLoop=1;jettySize=auto;html=1;exitX=0.5;exitY=1;exitDx=0;exitDy=0;exitPerimeter=0;entryX=1;entryY=0.5;entryDx=0;entryDy=0;" edge="1" parent="1" source="QOdi_98jwgq0zmnspLuc-17" target="QOdi_98jwgq0zmnspLuc-32">
          <mxGeometry relative="1" as="geometry" />
        </mxCell>
        <mxCell id="QOdi_98jwgq0zmnspLuc-17" value="Video&lt;div&gt;Storage&lt;/div&gt;" style="shape=cylinder3;whiteSpace=wrap;html=1;boundedLbl=1;backgroundOutline=1;size=15;" vertex="1" parent="1">
          <mxGeometry x="1290" y="580" width="60" height="80" as="geometry" />
        </mxCell>
        <mxCell id="QOdi_98jwgq0zmnspLuc-18" value="User Interaction" style="rounded=1;whiteSpace=wrap;html=1;" vertex="1" parent="1">
          <mxGeometry x="460" y="440" width="120" height="60" as="geometry" />
        </mxCell>
        <mxCell id="QOdi_98jwgq0zmnspLuc-22" value="movie/user data" style="shape=cylinder3;whiteSpace=wrap;html=1;boundedLbl=1;backgroundOutline=1;size=15;" vertex="1" parent="1">
          <mxGeometry x="700" y="418" width="60" height="80" as="geometry" />
        </mxCell>
        <mxCell id="QOdi_98jwgq0zmnspLuc-23" style="edgeStyle=orthogonalEdgeStyle;rounded=0;orthogonalLoop=1;jettySize=auto;html=1;exitX=0.5;exitY=1;exitDx=0;exitDy=0;entryX=0.5;entryY=0;entryDx=0;entryDy=0;entryPerimeter=0;" edge="1" parent="1" source="QOdi_98jwgq0zmnspLuc-4" target="QOdi_98jwgq0zmnspLuc-22">
          <mxGeometry relative="1" as="geometry" />
        </mxCell>
        <mxCell id="QOdi_98jwgq0zmnspLuc-24" style="edgeStyle=orthogonalEdgeStyle;rounded=0;orthogonalLoop=1;jettySize=auto;html=1;entryX=0;entryY=0;entryDx=0;entryDy=52.5;entryPerimeter=0;" edge="1" parent="1" source="QOdi_98jwgq0zmnspLuc-18" target="QOdi_98jwgq0zmnspLuc-22">
          <mxGeometry relative="1" as="geometry" />
        </mxCell>
        <mxCell id="QOdi_98jwgq0zmnspLuc-30" style="edgeStyle=orthogonalEdgeStyle;rounded=0;orthogonalLoop=1;jettySize=auto;html=1;entryX=1;entryY=0.5;entryDx=0;entryDy=0;" edge="1" parent="1" source="QOdi_98jwgq0zmnspLuc-25" target="QOdi_98jwgq0zmnspLuc-28">
          <mxGeometry relative="1" as="geometry" />
        </mxCell>
        <mxCell id="QOdi_98jwgq0zmnspLuc-25" value="Recommendation&lt;div&gt;Service&lt;/div&gt;" style="rounded=1;whiteSpace=wrap;html=1;" vertex="1" parent="1">
          <mxGeometry x="670" y="590" width="120" height="60" as="geometry" />
        </mxCell>
        <mxCell id="QOdi_98jwgq0zmnspLuc-26" value="Video Streaming&lt;div&gt;Service&lt;/div&gt;" style="rounded=1;whiteSpace=wrap;html=1;" vertex="1" parent="1">
          <mxGeometry x="260" y="440" width="120" height="60" as="geometry" />
        </mxCell>
        <mxCell id="QOdi_98jwgq0zmnspLuc-29" style="edgeStyle=orthogonalEdgeStyle;rounded=0;orthogonalLoop=1;jettySize=auto;html=1;entryX=0.5;entryY=1;entryDx=0;entryDy=0;" edge="1" parent="1" source="QOdi_98jwgq0zmnspLuc-28" target="QOdi_98jwgq0zmnspLuc-26">
          <mxGeometry relative="1" as="geometry" />
        </mxCell>
        <mxCell id="QOdi_98jwgq0zmnspLuc-28" value="Feed / Cache" style="rounded=1;whiteSpace=wrap;html=1;" vertex="1" parent="1">
          <mxGeometry x="260" y="590" width="120" height="60" as="geometry" />
        </mxCell>
        <mxCell id="QOdi_98jwgq0zmnspLuc-31" style="edgeStyle=orthogonalEdgeStyle;rounded=0;orthogonalLoop=1;jettySize=auto;html=1;entryX=0.5;entryY=0;entryDx=0;entryDy=0;" edge="1" parent="1" source="QOdi_98jwgq0zmnspLuc-22" target="QOdi_98jwgq0zmnspLuc-25">
          <mxGeometry relative="1" as="geometry" />
        </mxCell>
        <mxCell id="QOdi_98jwgq0zmnspLuc-37" style="edgeStyle=orthogonalEdgeStyle;rounded=0;orthogonalLoop=1;jettySize=auto;html=1;" edge="1" parent="1" source="QOdi_98jwgq0zmnspLuc-32" target="QOdi_98jwgq0zmnspLuc-36">
          <mxGeometry relative="1" as="geometry" />
        </mxCell>
        <mxCell id="QOdi_98jwgq0zmnspLuc-32" value="FanOut" style="rounded=1;whiteSpace=wrap;html=1;" vertex="1" parent="1">
          <mxGeometry x="440" y="690" width="120" height="60" as="geometry" />
        </mxCell>
        <mxCell id="QOdi_98jwgq0zmnspLuc-36" value="CDN" style="rounded=1;whiteSpace=wrap;html=1;" vertex="1" parent="1">
          <mxGeometry x="180" y="690" width="120" height="60" as="geometry" />
        </mxCell>
        <mxCell id="QOdi_98jwgq0zmnspLuc-40" value="" style="endArrow=classic;html=1;rounded=0;exitX=0.25;exitY=1;exitDx=0;exitDy=0;entryX=0.5;entryY=0;entryDx=0;entryDy=0;" edge="1" parent="1" source="QOdi_98jwgq0zmnspLuc-3" target="QOdi_98jwgq0zmnspLuc-26">
          <mxGeometry width="50" height="50" relative="1" as="geometry">
            <mxPoint x="700" y="630" as="sourcePoint" />
            <mxPoint x="750" y="580" as="targetPoint" />
            <Array as="points">
              <mxPoint x="490" y="400" />
              <mxPoint x="320" y="400" />
            </Array>
          </mxGeometry>
        </mxCell>
        <mxCell id="QOdi_98jwgq0zmnspLuc-41" value="Feature Extraction" style="text;html=1;align=center;verticalAlign=middle;whiteSpace=wrap;rounded=0;" vertex="1" parent="1">
          <mxGeometry x="1000" y="580" width="60" height="30" as="geometry" />
        </mxCell>
        <mxCell id="QOdi_98jwgq0zmnspLuc-42" value="Thumnbnail" style="shape=cylinder3;whiteSpace=wrap;html=1;boundedLbl=1;backgroundOutline=1;size=15;" vertex="1" parent="1">
          <mxGeometry x="1350" y="620" width="60" height="80" as="geometry" />
        </mxCell>
        <mxCell id="QOdi_98jwgq0zmnspLuc-43" value="Content Moderation" style="text;html=1;align=center;verticalAlign=middle;whiteSpace=wrap;rounded=0;" vertex="1" parent="1">
          <mxGeometry x="790" y="468" width="60" height="30" as="geometry" />
        </mxCell>
        <mxCell id="QOdi_98jwgq0zmnspLuc-44" value="" style="endArrow=classic;html=1;rounded=0;exitX=0.831;exitY=0;exitDx=0;exitDy=0;exitPerimeter=0;entryX=0.853;entryY=1.044;entryDx=0;entryDy=0;entryPerimeter=0;" edge="1" parent="1" source="QOdi_98jwgq0zmnspLuc-25" target="QOdi_98jwgq0zmnspLuc-4">
          <mxGeometry width="50" height="50" relative="1" as="geometry">
            <mxPoint x="870" y="550" as="sourcePoint" />
            <mxPoint x="920" y="500" as="targetPoint" />
          </mxGeometry>
        </mxCell>
      </root>
    </mxGraphModel>
  </diagram>
</mxfile>
